<svg width="25" height="25" viewBox="0 0 25 25" fill="none" xmlns="http://www.w3.org/2000/svg">
<g id="mingcute:arrow-up-line" clip-path="url(#clip0_1_296)">
<g id="Group">
<path id="Vector" d="M20.864 13.207C21.0515 13.0194 21.1568 12.7651 21.1568 12.5C21.1568 12.2348 21.0515 11.9805 20.864 11.793L15.207 6.13598C15.1148 6.04047 15.0044 5.96428 14.8824 5.91188C14.7604 5.85947 14.6292 5.83188 14.4964 5.83073C14.3636 5.82957 14.232 5.85487 14.1091 5.90516C13.9862 5.95544 13.8745 6.02969 13.7806 6.12358C13.6867 6.21747 13.6125 6.32913 13.5622 6.45202C13.5119 6.57492 13.4866 6.7066 13.4878 6.83938C13.4889 6.97216 13.5165 7.10338 13.5689 7.22538C13.6213 7.34739 13.6975 7.45773 13.793 7.54998L17.743 11.5L4.50001 11.5C4.2348 11.5 3.98044 11.6053 3.79291 11.7929C3.60537 11.9804 3.50001 12.2348 3.50001 12.5C3.50001 12.7652 3.60537 13.0195 3.79291 13.2071C3.98044 13.3946 4.2348 13.5 4.50001 13.5L17.743 13.5L13.793 17.45C13.6109 17.6386 13.5101 17.8912 13.5123 18.1534C13.5146 18.4156 13.6198 18.6664 13.8052 18.8518C13.9906 19.0372 14.2414 19.1424 14.5036 19.1447C14.7658 19.1469 15.0184 19.0461 15.207 18.864L20.864 13.207Z" fill="white"/>
</g>
</g>
<defs>
<clipPath id="clip0_1_296">
<rect width="24" height="24" fill="white" transform="matrix(0 1 -1 0 24.5 0.5)"/>
</clipPath>
</defs>
</svg>
