<svg width="80" height="81" viewBox="0 0 80 81" fill="none" xmlns="http://www.w3.org/2000/svg">
<g id="mdi:tick-circle-outline">
<path id="Vector" d="M40 7.16669C21.6667 7.16669 6.66669 22.1667 6.66669 40.5C6.66669 58.8334 21.6667 73.8334 40 73.8334C58.3334 73.8334 73.3334 58.8334 73.3334 40.5C73.3334 22.1667 58.3334 7.16669 40 7.16669ZM40 67.1667C25.3 67.1667 13.3334 55.2 13.3334 40.5C13.3334 25.8 25.3 13.8334 40 13.8334C54.7 13.8334 66.6667 25.8 66.6667 40.5C66.6667 55.2 54.7 67.1667 40 67.1667ZM55.3 25.7667L33.3334 47.7334L24.7 39.1334L20 43.8334L33.3334 57.1667L60 30.5L55.3 25.7667Z" fill="#34D399"/>
</g>
</svg>
